<svg xmlns="http://www.w3.org/2000/svg" viewBox="0 0 600 800" width="600" height="800" role="img" aria-label="準備中">
  <defs>
    <linearGradient id="g" x1="0" y1="0" x2="1" y2="1">
      <stop offset="0" stop-color="#22103a"/>
      <stop offset="0.55" stop-color="#3a1454"/>
      <stop offset="1" stop-color="#160a26"/>
    </linearGradient>
    <radialGradient id="glow" cx="0.5" cy="0.42" r="0.6">
      <stop offset="0" stop-color="#ff4fd8" stop-opacity="0.55"/>
      <stop offset="1" stop-color="#ff4fd8" stop-opacity="0"/>
    </radialGradient>
    <filter id="blur"><feGaussianBlur stdDeviation="6"/></filter>
  </defs>
  <rect width="600" height="800" fill="url(#g)"/>
  <rect width="600" height="800" fill="url(#glow)"/>
  <g filter="url(#blur)" opacity="0.85">
    <path d="M300 360c-26-46-104-44-104 18 0 52 84 92 104 116 20-24 104-64 104-116 0-62-78-64-104-18z" fill="#ff4fd8"/>
  </g>
  <path d="M300 360c-26-46-104-44-104 18 0 52 84 92 104 116 20-24 104-64 104-116 0-62-78-64-104-18z" fill="#ffd1ec"/>
  <text x="300" y="540" text-anchor="middle" font-family="'Pacifico', cursive" font-size="62" fill="#ffffff" opacity="0.95">Admi</text>
  <text x="300" y="592" text-anchor="middle" font-family="sans-serif" font-size="22" letter-spacing="6" fill="#d9c4ff" opacity="0.85">COMING SOON</text>
</svg>
